HIERARCHY
ROOT Hips
{
	OFFSET 0.000000 0.000000 0.000000 
	CHANNELS 6 Xposition Yposition Zposition Zrotation Yrotation Xrotation
	JOINT LeftUpLeg
	{
		OFFSET 1.363060 -1.794630 0.839290 
		CHANNELS 3 Zrotation Yrotation Xrotation
		JOINT LeftLeg
		{
			OFFSET 2.448110 -6.726130 0.000000 
			CHANNELS 3 Zrotation Yrotation Xrotation
			JOINT LeftFoot
			{
				OFFSET 2.562200 -7.039590 0.000000 
				CHANNELS 3 Zrotation Yrotation Xrotation
				JOINT LeftToeBase
				{
					OFFSET 0.157640 -0.433110 2.322550 
					CHANNELS 3 Zrotation Yrotation Xrotation
					End Site
					{
						OFFSET 0.000000 0.000000 0.000000 
					}
				}
			}
		}
	}
	JOINT RightUpLeg
	{
		OFFSET -1.305520 -1.794630 0.839290 
		CHANNELS 3 Zrotation Yrotation Xrotation
		JOINT RightLeg
		{
			OFFSET -2.542530 -6.985550 0.000000 
			CHANNELS 3 Zrotation Yrotation Xrotation
			JOINT RightFoot
			{
				OFFSET -2.568260 -7.056230 0.000000 
				CHANNELS 3 Zrotation Yrotation Xrotation
				JOINT RightToeBase
				{
					OFFSET -0.164730 -0.452590 2.363150 
					CHANNELS 3 Zrotation Yrotation Xrotation
					End Site
					{
						OFFSET 0.000000 0.000000 0.000000 
					}
				}
			}
		}
	}
	JOINT Spine
	{
		OFFSET 0.028270 2.035590 -0.193380 
		CHANNELS 3 Zrotation Yrotation Xrotation
		JOINT Spine1
		{
			OFFSET 0.056720 2.048850 -0.042750 
			CHANNELS 3 Zrotation Yrotation Xrotation
			JOINT Neck1
			{
				OFFSET -0.054170 1.746240 0.172020 
				CHANNELS 3 Zrotation Yrotation Xrotation
				JOINT Head
				{
					OFFSET 0.104070 1.761360 -0.123970 
					CHANNELS 3 Zrotation Yrotation Xrotation
					End Site
					{
						OFFSET 0.000000 0.000000 0.000000 
					}
				}
			}
			JOINT LeftArm
			{
				OFFSET 3.362410 1.200890 -0.311210 
				CHANNELS 3 Zrotation Yrotation Xrotation
				JOINT LeftForeArm
				{
					OFFSET 4.983000 -0.000000 -0.000000 
					CHANNELS 3 Zrotation Yrotation Xrotation
					JOINT LeftHand
					{
						OFFSET 3.483560 -0.000000 -0.000000 
						CHANNELS 3 Zrotation Yrotation Xrotation
						JOINT LeftHandIndex1
						{
							OFFSET 0.715260 -0.000000 -0.000000 
							CHANNELS 3 Zrotation Yrotation Xrotation
							End Site
							{
								OFFSET 0.000000 0.000000 0.000000 
							}
						}
					}
				}
			}
			JOINT RightArm
			{
				OFFSET -3.136600 1.374050 -0.404650 
				CHANNELS 3 Zrotation Yrotation Xrotation
				JOINT RightForeArm
				{
					OFFSET -5.241900 -0.000000 -0.000000 
					CHANNELS 3 Zrotation Yrotation Xrotation
					JOINT RightHand
					{
						OFFSET -3.444170 -0.000000 -0.000000 
						CHANNELS 3 Zrotation Yrotation Xrotation
						JOINT RightHandIndex1
						{
							OFFSET -0.622530 -0.000000 -0.000000 
							CHANNELS 3 Zrotation Yrotation Xrotation
							End Site
							{
								OFFSET 0.000000 0.000000 0.000000 
							}
						}
					}
				}
			}
		}
	}
}
MOTION
Frames: 15
Frame Time: 0.041667
-0.825171 17.439722 6.642981 -4.351783 9.015734 -11.484621 -10.166803 -9.354319 -1.714617 4.952530 12.115365 40.585038 2.231752 -6.302259 -14.141943 9.505900 -17.122500 -57.823600 20.246533 -9.039161 9.954439 -2.361589 -7.253246 25.579550 -1.990868 2.877587 -21.112931 -1.642600 8.078100 -22.951700 -4.000593 1.007365 13.619537 0.960857 1.261930 -17.709891 -0.237931 -3.747784 -27.603895 1.155500 -1.590800 -3.038400 -105.307785 -64.872903 91.587887 158.111554 -31.665578 -113.620710 -0.992907 0.075698 -61.296759 -7.125000 0.000000 0.000000 27.563560 55.101621 -12.269266 -110.462220 55.223879 -72.760446 2.264744 -0.557434 15.780864 7.125000 0.000000 0.000000 
-0.834277 17.469588 6.655515 -4.296664 9.241788 -11.262795 -10.071935 -9.298627 -1.543274 4.825446 12.040697 40.114704 2.194925 -6.242008 -13.899611 9.568200 -17.159800 -58.035200 20.293296 -9.324687 10.142712 -2.298998 -7.158430 25.258427 -1.897691 2.662228 -20.693712 -1.648700 8.092500 -22.995500 -5.328288 0.991877 11.254250 1.284241 1.256196 -17.284475 -0.672292 -3.802482 -26.870237 1.007900 -1.597000 -2.840700 -105.143844 -64.146381 91.826850 158.252413 -31.493374 -113.705183 -1.006050 0.054896 -60.591667 -7.125000 0.000000 0.000000 29.129997 54.885600 -11.386844 -112.101094 54.889343 -74.447423 2.373914 -0.488230 16.958897 7.125000 0.000000 0.000000 
-0.842405 17.496614 6.664523 -4.146774 9.413433 -10.996360 -10.019513 -9.267448 -1.404413 4.699593 11.976117 39.658157 2.160275 -6.156959 -13.708679 9.617500 -17.189100 -58.202100 20.307287 -9.569423 10.278883 -2.242676 -7.066620 24.961098 -1.806939 2.471705 -20.258758 -1.670300 8.142600 -23.148000 -7.359677 0.994677 8.931744 1.740973 1.274015 -16.841544 -1.457315 -3.887689 -26.145577 0.722500 -1.609900 -2.665800 -104.797127 -63.397521 91.869594 158.305442 -31.374443 -113.752526 -1.024224 0.054913 -59.639439 -7.125000 0.000000 0.000000 30.759287 54.667811 -10.547671 -113.531302 54.571218 -75.931387 2.472058 -0.421608 18.103106 7.125000 0.000000 0.000000 
-0.848965 17.511595 6.667461 -4.140765 9.595937 -11.074846 -9.987102 -9.331188 -1.196271 4.617675 11.871639 39.294600 2.134312 -6.086268 -13.584759 9.637900 -17.201200 -58.271300 20.260576 -9.731509 10.383271 -2.213112 -6.999587 24.769735 -1.757676 2.466790 -19.906500 -1.634700 8.059800 -22.895700 -7.711426 1.128662 9.328886 1.871969 1.351718 -16.670433 -2.213706 -3.950284 -26.140857 0.520400 -1.592400 -2.650100 -105.532685 -63.257790 92.558506 158.394549 -31.262616 -113.801280 -1.049439 0.074930 -58.582701 -7.125000 0.000000 0.000000 31.259504 54.600936 -10.561458 -114.645885 54.245658 -77.116487 2.561269 -0.381268 19.029437 7.125000 0.000000 0.000000 
-0.855428 17.527262 6.667069 -3.880237 9.777541 -10.951234 -10.139530 -9.501790 -1.057426 4.542537 11.822273 39.015791 2.112301 -5.974708 -13.561285 9.616200 -17.188300 -58.197700 20.138648 -9.819014 10.394369 -2.202820 -6.972434 24.696877 -1.744039 2.530174 -19.744362 -1.581100 7.932800 -22.510100 -9.498356 1.236771 8.643516 2.273080 1.433744 -16.416121 -2.699086 -3.959659 -25.933301 0.380000 -1.570000 -2.607100 -105.952931 -63.139675 92.891459 158.474367 -31.137559 -113.856178 -1.065101 0.086721 -57.960564 -7.125000 0.000000 0.000000 32.083274 54.412526 -10.353173 -115.547932 53.988126 -78.073210 2.642641 -0.373933 19.884378 7.125000 0.000000 0.000000 
-0.862968 17.531865 6.660704 -3.595883 9.958561 -10.878876 -10.342604 -9.752984 -0.963790 4.508290 11.806958 38.894418 2.115514 -5.946205 -13.629531 9.561500 -17.155800 -58.012500 19.975295 -9.921657 10.334213 -2.211732 -6.978724 24.735061 -1.746111 2.596852 -19.692981 -1.563700 7.891100 -22.383900 -11.119263 1.390187 8.436057 2.632416 1.538782 -16.285019 -2.780213 -3.935104 -25.813692 0.371000 -1.544700 -2.578100 -106.425280 -63.171096 93.179439 158.528581 -31.047221 -113.895581 -1.074804 0.092270 -57.791144 -7.125000 0.000000 0.000000 32.470535 54.210091 -10.486742 -116.141813 53.798261 -78.709430 2.704433 -0.371532 20.610622 7.125000 0.000000 0.000000 
-0.870116 17.526185 6.646114 -3.385845 10.132386 -10.927133 -10.466210 -10.013693 -0.949810 4.520764 11.829372 38.947683 2.145195 -6.021065 -13.759877 9.506800 -17.123000 -57.826900 19.854869 -10.081722 10.265741 -2.231642 -6.996919 24.826417 -1.767792 2.685858 -19.755917 -1.571500 7.909800 -22.440600 -12.499538 1.628235 8.887151 2.896598 1.658314 -16.316388 -2.991444 -3.858539 -26.176909 0.346200 -1.476200 -2.708800 -107.020046 -63.335446 93.558540 158.580974 -30.970783 -113.930030 -1.085328 0.101210 -57.670188 -7.125000 0.000000 0.000000 32.472387 54.009093 -10.960519 -116.465992 53.656454 -79.074439 2.751530 -0.382961 21.155854 7.125000 0.000000 0.000000 
-0.877068 17.510616 6.621830 -3.168025 10.324216 -10.973455 -10.562397 -10.271849 -1.121709 4.575675 11.914145 39.207901 2.161805 -6.014427 -13.916116 9.513200 -17.126800 -57.848400 19.764374 -10.284950 10.149776 -2.254940 -7.017339 24.931339 -1.818310 2.798725 -19.997808 -1.554800 7.869600 -22.318700 -14.045758 1.878016 9.411083 3.147959 1.766949 -16.488465 -3.093742 -3.897343 -26.152106 0.321700 -1.478300 -2.723800 -107.430321 -63.526954 93.760080 158.634916 -30.875772 -113.969380 -1.094901 0.108730 -57.338628 -7.125000 0.000000 0.000000 32.381196 53.812336 -11.534531 -116.510463 53.588141 -79.160760 2.792305 -0.405990 21.627366 7.125000 0.000000 0.000000 
-0.884510 17.483394 6.588635 -2.918805 10.542181 -10.910022 -10.664185 -10.605167 -1.532248 4.673283 12.073856 39.691602 2.163588 -5.917434 -14.099035 9.565500 -17.158200 -58.026200 19.727324 -10.456411 9.926770 -2.283912 -7.049361 25.066999 -1.912873 2.970120 -20.486162 -1.495900 7.725900 -21.884600 -15.841059 2.060838 9.559652 3.423157 1.843144 -16.683573 -3.219819 -3.887827 -26.011544 0.264300 -1.464000 -2.723100 -107.454114 -63.715692 93.700653 158.670484 -30.778039 -114.004822 -1.101701 0.114865 -56.792640 -7.125000 0.000000 0.000000 32.337702 53.674914 -12.059252 -116.189480 53.616529 -78.885114 2.812075 -0.413036 22.276967 7.125000 0.000000 0.000000 
-0.892539 17.455193 6.549957 -2.977074 10.786755 -10.996704 -10.621913 -11.048071 -2.049421 4.823473 12.233258 40.329498 2.179917 -5.897121 -14.293609 9.603000 -17.180500 -58.153200 19.854791 -10.565677 9.590819 -2.323811 -7.104978 25.268154 -2.042475 3.126341 -21.210739 -1.523500 7.793800 -22.089500 -15.656113 2.405349 11.212223 3.352411 1.947066 -17.043057 -3.593205 -3.965864 -26.354519 0.183000 -1.460300 -2.832100 -107.942306 -64.144800 93.940085 158.705762 -30.765965 -114.015383 -1.113851 0.136357 -56.277155 -7.125000 0.000000 0.000000 31.301943 53.687204 -13.187526 -115.516662 53.746927 -78.213052 2.811185 -0.421798 22.931539 7.125000 0.000000 0.000000 
-0.899492 17.418963 6.505306 -2.981587 11.016988 -10.834842 -10.549062 -11.548196 -2.792320 4.983759 12.446205 41.046564 2.203348 -5.905479 -14.497880 9.604600 -17.181400 -58.158300 20.077950 -10.561860 9.054821 -2.392971 -7.219037 25.645708 -2.182350 3.293645 -21.980476 -1.596500 7.969500 -22.621500 -16.402493 2.629774 11.782909 3.359748 2.002737 -17.250517 -3.776236 -4.022241 -26.690908 0.126100 -1.463400 -2.969300 -107.683653 -64.507269 93.560512 158.695183 -30.751799 -114.015975 -1.123360 0.154803 -56.164958 -7.125000 0.000000 0.000000 30.640237 53.660134 -14.063199 -114.606843 53.941641 -77.301537 2.796032 -0.454228 23.385684 7.125000 0.000000 0.000000 
-0.905465 17.389685 6.459283 -2.963758 11.243670 -10.525542 -10.476991 -12.091774 -3.638364 5.136214 12.647525 41.714802 2.243465 -5.982924 -14.727895 9.567100 -17.159100 -58.031400 20.326493 -10.376355 8.298487 -2.496645 -7.391249 26.207911 -2.300663 3.539962 -22.523461 -1.556100 7.872800 -22.328300 -17.201467 2.842578 12.339890 3.373742 2.049676 -17.373907 -3.818542 -3.969854 -27.107051 0.106100 -1.421100 -3.123400 -107.335155 -64.878160 93.151865 158.677858 -30.734327 -114.015447 -1.129155 0.165908 -56.138337 -7.125000 0.000000 0.000000 30.173987 53.619354 -14.752717 -113.605044 54.137345 -76.307855 2.771654 -0.507679 23.701101 7.125000 0.000000 0.000000 
-0.911340 17.373724 6.413065 -3.060830 11.426934 -10.138001 -10.289623 -12.614400 -4.549834 5.264505 12.805032 42.252744 2.287187 -6.110507 -14.900972 9.520300 -17.131100 -57.872600 20.637580 -10.119401 7.258413 -2.629942 -7.618689 26.945662 -2.348904 3.692596 -22.708245 -1.517300 7.778600 -22.043700 -17.386250 3.069272 13.186092 3.251068 2.097997 -17.423736 -3.227826 -3.979314 -27.694083 0.308400 -1.430200 -3.288800 -107.122240 -65.105318 92.980671 158.681358 -30.703374 -114.020754 -1.136272 0.178726 -55.896775 -7.125000 0.000000 0.000000 29.777054 53.640319 -15.248859 -112.441400 54.362192 -75.144683 2.741725 -0.571374 24.081736 7.125000 0.000000 0.000000 
-0.915649 17.370591 6.370568 -3.165802 11.569365 -9.765905 -10.083273 -13.018538 -5.379880 5.338147 12.892705 42.564057 2.290000 -6.085862 -14.969758 9.522100 -17.132200 -57.878700 20.869716 -9.985852 6.112915 -2.763457 -7.842279 27.688080 -2.323470 3.682964 -22.577672 -1.582400 7.936000 -22.519800 -17.398082 3.348843 14.412073 3.155892 2.164849 -17.465016 -2.962317 -3.933387 -28.282811 0.388500 -1.407100 -3.452800 -106.929096 -65.141759 92.876483 158.704701 -30.633057 -114.038256 -1.142928 0.190198 -55.685023 -7.125000 0.000000 0.000000 29.462601 53.698213 -15.643215 -110.893010 54.642463 -73.613123 2.700121 -0.623478 24.579306 7.125000 0.000000 0.000000 
-0.919174 17.377151 6.330910 -3.109322 11.732580 -9.510749 -10.046959 -13.267824 -5.952382 5.357952 12.902456 42.630680 2.286718 -6.115279 -14.896867 9.505700 -17.122400 -57.823100 20.852392 -10.013061 5.166269 -2.870031 -8.007728 28.257885 -2.286731 3.695614 -22.345046 -1.653600 8.103700 -23.029600 -17.437901 3.697326 15.909425 3.164179 2.277553 -17.583240 -3.060427 -3.811369 -28.564029 0.352200 -1.336600 -3.533100 -107.008936 -65.050125 92.898176 158.746159 -30.531283 -114.068047 -1.149242 0.194591 -55.622962 -7.125000 0.000000 0.000000 29.585387 53.619636 -15.725439 -109.140633 54.913158 -71.911818 2.653200 -0.672888 25.164784 7.125000 0.000000 0.000000 
